<svg width="9" height="9" viewBox="0 0 9 9" fill="none" xmlns="http://www.w3.org/2000/svg">
<path d="M4.09377 4.90625H1.46877C1.35366 4.90625 1.2572 4.8676 1.17939 4.79031C1.10147 4.71302 1.06252 4.61729 1.06252 4.50313C1.06252 4.38885 1.10147 4.29208 1.17939 4.21281C1.2572 4.13344 1.35366 4.09375 1.46877 4.09375H4.09377V1.46875C4.09377 1.35365 4.13241 1.25719 4.2097 1.17937C4.28699 1.10146 4.38272 1.0625 4.49689 1.0625C4.61116 1.0625 4.70793 1.10146 4.7872 1.17937C4.86658 1.25719 4.90627 1.35365 4.90627 1.46875V4.09375H7.53127C7.64637 4.09375 7.74283 4.1324 7.82064 4.20969C7.89856 4.28698 7.93752 4.38271 7.93752 4.49687C7.93752 4.61115 7.89856 4.70792 7.82064 4.78719C7.74283 4.86656 7.64637 4.90625 7.53127 4.90625H4.90627V7.53125C4.90627 7.64635 4.86762 7.74281 4.79033 7.82063C4.71304 7.89854 4.61731 7.9375 4.50314 7.9375C4.38887 7.9375 4.2921 7.89854 4.21283 7.82063C4.13345 7.74281 4.09377 7.64635 4.09377 7.53125V4.90625Z" fill="#6B4900" stroke="#6B4900" stroke-width="0.5"/>
</svg>
