<svg width="16" height="16" viewBox="0 0 16 16" fill="none" xmlns="http://www.w3.org/2000/svg">
<path d="M3.61069 9L8.51069 13.9C8.71069 14.1 8.80653 14.3333 8.79819 14.6C8.78986 14.8667 8.68569 15.1 8.48569 15.3C8.28569 15.4833 8.05236 15.5792 7.78569 15.5875C7.51903 15.5958 7.28569 15.5 7.08569 15.3L0.485693 8.7C0.385693 8.6 0.31486 8.49167 0.273193 8.375C0.231527 8.25834 0.210693 8.13334 0.210693 8C0.210693 7.86667 0.231527 7.74167 0.273193 7.625C0.31486 7.50834 0.385693 7.4 0.485693 7.3L7.08569 0.700003C7.26903 0.51667 7.49819 0.425003 7.77319 0.425003C8.04819 0.425003 8.28569 0.51667 8.48569 0.700003C8.68569 0.900003 8.78569 1.1375 8.78569 1.4125C8.78569 1.6875 8.68569 1.925 8.48569 2.125L3.61069 7H14.7857C15.069 7 15.3065 7.09584 15.4982 7.2875C15.6899 7.47917 15.7857 7.71667 15.7857 8C15.7857 8.28334 15.6899 8.52084 15.4982 8.7125C15.3065 8.90417 15.069 9 14.7857 9H3.61069Z" fill="#1C1B1F"/>
</svg>
