<svg width="16" height="16" viewBox="0 0 16 16" fill="none" xmlns="http://www.w3.org/2000/svg">
<mask id="mask0_149_4671" style="mask-type:alpha" maskUnits="userSpaceOnUse" x="0" y="0" width="16" height="16">
<rect x="0.160461" y="0.0629883" width="15.1608" height="15.1608" fill="#D9D9D9"/>
</mask>
<g mask="url(#mask0_149_4671)">
<path d="M3.76605 13.3923C3.48167 13.3923 3.24131 13.2923 3.04496 13.0922C2.8486 12.8922 2.75043 12.6537 2.75043 12.3767V4.42702C2.75043 4.15001 2.8486 3.91149 3.04496 3.71146C3.24131 3.51142 3.48167 3.4114 3.76605 3.4114H5.146V2.24512C5.146 2.12457 5.18601 2.02397 5.26602 1.94332C5.34604 1.86278 5.44585 1.82251 5.56545 1.82251C5.68516 1.82251 5.78607 1.86278 5.86819 1.94332C5.95042 2.02397 5.99153 2.12457 5.99153 2.24512V3.4114H9.51453V2.23312C9.51453 2.11657 9.55349 2.01897 9.6314 1.94032C9.70941 1.86178 9.80622 1.82251 9.92182 1.82251C10.0374 1.82251 10.1353 1.86178 10.2154 1.94032C10.2956 2.01897 10.3357 2.11657 10.3357 2.23312V3.4114H11.7157C12.0001 3.4114 12.2404 3.51142 12.4368 3.71146C12.6331 3.91149 12.7313 4.15001 12.7313 4.42702V12.3767C12.7313 12.6537 12.6331 12.8922 12.4368 13.0922C12.2404 13.2923 12.0001 13.3923 11.7157 13.3923H3.76605ZM3.76605 12.5711H11.7157C11.7643 12.5711 11.8089 12.5508 11.8493 12.5103C11.8898 12.4698 11.9101 12.4253 11.9101 12.3767V7.08016H3.57164V12.3767C3.57164 12.4253 3.59191 12.4698 3.63244 12.5103C3.67287 12.5508 3.7174 12.5711 3.76605 12.5711ZM3.57164 6.25895H11.9101V4.42702C11.9101 4.37837 11.8898 4.33384 11.8493 4.29341C11.8089 4.25288 11.7643 4.23261 11.7157 4.23261H3.76605C3.7174 4.23261 3.67287 4.25288 3.63244 4.29341C3.59191 4.33384 3.57164 4.37837 3.57164 4.42702V6.25895ZM7.74419 9.20852C7.60837 9.20852 7.49124 9.16041 7.3928 9.06418C7.29447 8.96806 7.2453 8.85203 7.2453 8.71611C7.2453 8.5803 7.29336 8.46317 7.38949 8.36473C7.48572 8.26639 7.60174 8.21723 7.73755 8.21723C7.87337 8.21723 7.9905 8.26529 8.08894 8.36141C8.18727 8.45764 8.23644 8.57366 8.23644 8.70948C8.23644 8.8454 8.18838 8.96253 8.09225 9.06086C7.99603 9.1593 7.88 9.20852 7.74419 9.20852ZM5.28055 9.20852C5.14473 9.20852 5.02761 9.16041 4.92917 9.06418C4.83083 8.96806 4.78166 8.85203 4.78166 8.71611C4.78166 8.5803 4.82973 8.46317 4.92585 8.36473C5.02208 8.26639 5.1381 8.21723 5.27392 8.21723C5.40973 8.21723 5.52686 8.26529 5.6253 8.36141C5.72364 8.45764 5.7728 8.57366 5.7728 8.70948C5.7728 8.8454 5.72474 8.96253 5.62862 9.06086C5.53239 9.1593 5.41637 9.20852 5.28055 9.20852ZM10.2078 9.20852C10.072 9.20852 9.95488 9.16041 9.85644 9.06418C9.7581 8.96806 9.70894 8.85203 9.70894 8.71611C9.70894 8.5803 9.757 8.46317 9.85312 8.36473C9.94935 8.26639 10.0654 8.21723 10.2012 8.21723C10.337 8.21723 10.4541 8.26529 10.5526 8.36141C10.6509 8.45764 10.7001 8.57366 10.7001 8.70948C10.7001 8.8454 10.652 8.96253 10.5559 9.06086C10.4597 9.1593 10.3436 9.20852 10.2078 9.20852ZM7.74419 11.434C7.60837 11.434 7.49124 11.3859 7.3928 11.2897C7.29447 11.1935 7.2453 11.0776 7.2453 10.9418C7.2453 10.8058 7.29336 10.6887 7.38949 10.5904C7.48572 10.4919 7.60174 10.4427 7.73755 10.4427C7.87337 10.4427 7.9905 10.4908 8.08894 10.5871C8.18727 10.6832 8.23644 10.7992 8.23644 10.9351C8.23644 11.0709 8.18838 11.188 8.09225 11.2863C7.99603 11.3848 7.88 11.434 7.74419 11.434ZM5.28055 11.434C5.14473 11.434 5.02761 11.3859 4.92917 11.2897C4.83083 11.1935 4.78166 11.0776 4.78166 10.9418C4.78166 10.8058 4.82973 10.6887 4.92585 10.5904C5.02208 10.4919 5.1381 10.4427 5.27392 10.4427C5.40973 10.4427 5.52686 10.4908 5.6253 10.5871C5.72364 10.6832 5.7728 10.7992 5.7728 10.9351C5.7728 11.0709 5.72474 11.188 5.62862 11.2863C5.53239 11.3848 5.41637 11.434 5.28055 11.434ZM10.2078 11.434C10.072 11.434 9.95488 11.3859 9.85644 11.2897C9.7581 11.1935 9.70894 11.0776 9.70894 10.9418C9.70894 10.8058 9.757 10.6887 9.85312 10.5904C9.94935 10.4919 10.0654 10.4427 10.2012 10.4427C10.337 10.4427 10.4541 10.4908 10.5526 10.5871C10.6509 10.6832 10.7001 10.7992 10.7001 10.9351C10.7001 11.0709 10.652 11.188 10.5559 11.2863C10.4597 11.3848 10.3436 11.434 10.2078 11.434Z" fill="#1C1B1F"/>
</g>
</svg>
