<svg width="14" height="14" viewBox="0 0 14 14" fill="none" xmlns="http://www.w3.org/2000/svg">
<path d="M6.78569 8.4L1.88569 13.3C1.70236 13.4833 1.46903 13.575 1.18569 13.575C0.90236 13.575 0.669027 13.4833 0.485693 13.3C0.30236 13.1167 0.210693 12.8833 0.210693 12.6C0.210693 12.3167 0.30236 12.0833 0.485693 11.9L5.38569 7L0.485693 2.1C0.30236 1.91667 0.210693 1.68334 0.210693 1.4C0.210693 1.11667 0.30236 0.883336 0.485693 0.700003C0.669027 0.51667 0.90236 0.425003 1.18569 0.425003C1.46903 0.425003 1.70236 0.51667 1.88569 0.700003L6.78569 5.6L11.6857 0.700003C11.869 0.51667 12.1024 0.425003 12.3857 0.425003C12.669 0.425003 12.9024 0.51667 13.0857 0.700003C13.269 0.883336 13.3607 1.11667 13.3607 1.4C13.3607 1.68334 13.269 1.91667 13.0857 2.1L8.18569 7L13.0857 11.9C13.269 12.0833 13.3607 12.3167 13.3607 12.6C13.3607 12.8833 13.269 13.1167 13.0857 13.3C12.9024 13.4833 12.669 13.575 12.3857 13.575C12.1024 13.575 11.869 13.4833 11.6857 13.3L6.78569 8.4Z" fill="#1C1B1F"/>
</svg>
