<svg width="16" height="16" viewBox="0 0 16 16" fill="none" xmlns="http://www.w3.org/2000/svg">
<mask id="mask0_149_4666" style="mask-type:alpha" maskUnits="userSpaceOnUse" x="0" y="0" width="16" height="16">
<rect x="0.160461" y="0.6604" width="15.1608" height="15.1608" fill="#D9D9D9"/>
</mask>
<g mask="url(#mask0_149_4666)">
<path d="M7.74095 13.9892C6.65253 13.9892 5.77505 13.8466 5.10849 13.5615C4.44194 13.2765 4.10867 12.9019 4.10867 12.4379C4.10867 12.267 4.17368 12.0992 4.30371 11.9344C4.43363 11.7695 4.61845 11.6211 4.85818 11.489C4.95862 11.4372 5.06654 11.4334 5.18193 11.4775C5.29732 11.5216 5.38097 11.5939 5.43287 11.6943C5.48467 11.7948 5.48852 11.8991 5.4444 12.0072C5.40029 12.1153 5.32801 12.1953 5.22757 12.2471C5.14819 12.2819 5.07975 12.3149 5.02227 12.3461C4.96468 12.3773 4.92983 12.4111 4.91772 12.4475C4.96952 12.6152 5.29085 12.7772 5.8817 12.9334C6.47244 13.0898 7.0922 13.1679 7.74095 13.1679C8.38971 13.1679 9.00946 13.0898 9.60021 12.9334C10.1911 12.7772 10.5124 12.6152 10.5642 12.4475C10.5521 12.4111 10.5172 12.3773 10.4596 12.3461C10.4022 12.3149 10.3337 12.2819 10.2543 12.2471C10.1539 12.1953 10.0816 12.1153 10.0375 12.0072C9.99339 11.8991 9.99723 11.7948 10.049 11.6943C10.1009 11.5939 10.1846 11.5216 10.3 11.4775C10.4154 11.4334 10.5233 11.4372 10.6237 11.489C10.8635 11.6211 11.0483 11.7695 11.1782 11.9344C11.3082 12.0992 11.3732 12.267 11.3732 12.4379C11.3732 12.9019 11.04 13.2765 10.3734 13.5615C9.70686 13.8466 8.82937 13.9892 7.74095 13.9892ZM7.75675 11.0675C8.76094 10.3062 9.51472 9.53666 10.0181 8.75883C10.5214 7.98089 10.7731 7.22374 10.7731 6.48738C10.7731 5.4395 10.4477 4.64855 9.79698 4.11455C9.14623 3.58045 8.46088 3.3134 7.74095 3.3134C7.02502 3.3134 6.34068 3.58114 5.68792 4.11661C5.03516 4.65219 4.70879 5.44534 4.70879 6.49607C4.70879 7.18778 4.96247 7.91835 5.46983 8.68776C5.97719 9.45717 6.7395 10.2504 7.75675 11.0675ZM7.74095 11.8499C7.63725 11.8499 7.5336 11.8325 7.43 11.7976C7.32629 11.7628 7.23112 11.7073 7.14447 11.6312C6.05036 10.7404 5.23405 9.86167 4.69552 8.99508C4.15689 8.12849 3.88757 7.29422 3.88757 6.49228C3.88757 5.83457 4.00381 5.25841 4.23627 4.76379C4.46874 4.26906 4.7708 3.85382 5.14245 3.51807C5.5142 3.18243 5.92813 2.92753 6.38422 2.7534C6.8402 2.57926 7.29229 2.49219 7.74048 2.49219C8.18867 2.49219 8.64092 2.57926 9.09722 2.7534C9.55362 2.92753 9.96696 3.18237 10.3372 3.51791C10.7075 3.85345 11.0096 4.26995 11.2434 4.76742C11.4774 5.26478 11.5943 5.8411 11.5943 6.49639C11.5943 7.29559 11.325 8.12849 10.7864 8.99508C10.2479 9.86167 9.43154 10.7404 8.33744 11.6312C8.25079 11.7073 8.15561 11.7628 8.05191 11.7976C7.94831 11.8325 7.84466 11.8499 7.74095 11.8499ZM7.74427 7.41583C8.02548 7.41583 8.26448 7.31734 8.46125 7.12035C8.65813 6.92326 8.75657 6.68211 8.75657 6.39689C8.75657 6.11568 8.65703 5.87669 8.45793 5.67991C8.25895 5.48303 8.01885 5.38459 7.73764 5.38459C7.46042 5.38459 7.22243 5.48566 7.02366 5.68781C6.82477 5.88985 6.72533 6.12732 6.72533 6.40021C6.72533 6.67721 6.82588 6.91573 7.02697 7.11577C7.22806 7.31581 7.46716 7.41583 7.74427 7.41583Z" fill="#1C1B1F"/>
</g>
</svg>
