<svg width="30" height="26" viewBox="0 0 30 26" fill="none" xmlns="http://www.w3.org/2000/svg">
<path d="M9.66699 11.6667C11.1398 11.6667 12.3337 10.4728 12.3337 9C12.3337 7.52724 11.1398 6.33333 9.66699 6.33333C8.19423 6.33333 7.00033 7.52724 7.00033 9C7.00033 10.4728 8.19423 11.6667 9.66699 11.6667Z" fill="#E8E8E8"/>
<path d="M1.66699 7.4C1.66699 5.15979 1.66699 4.03969 2.10297 3.18404C2.48646 2.43139 3.09838 1.81947 3.85103 1.43597C4.70668 1 5.82678 1 8.06699 1H21.9337C24.1739 1 25.294 1 26.1496 1.43597C26.9023 1.81947 27.5142 2.43139 27.8977 3.18404C28.3337 4.03969 28.3337 5.15979 28.3337 7.4V18.6C28.3337 20.8402 28.3337 21.9603 27.8977 22.816C27.5142 23.5686 26.9023 24.1805 26.1496 24.564C25.294 25 24.1739 25 21.9337 25H8.06699C5.82678 25 4.70668 25 3.85103 24.564C3.09838 24.1805 2.48646 23.5686 2.10297 22.816C1.66699 21.9603 1.66699 20.8402 1.66699 18.6V7.4Z" fill="#E8E8E8"/>
<path d="M4.69645 24.6372L13.4918 15.8418C14.0199 15.3138 14.2839 15.0498 14.5883 14.9509C14.8561 14.8639 15.1446 14.8639 15.4123 14.9509C15.7168 15.0498 15.9808 15.3138 16.5088 15.8418L25.2456 24.5786M17.667 17L21.4918 13.1752C22.0199 12.6471 22.2839 12.3831 22.5883 12.2842C22.8561 12.1972 23.1446 12.1972 23.4123 12.2842C23.7168 12.3831 23.9808 12.6471 24.5088 13.1752L28.3337 17M12.3337 9C12.3337 10.4728 11.1398 11.6667 9.66699 11.6667C8.19423 11.6667 7.00033 10.4728 7.00033 9C7.00033 7.52724 8.19423 6.33333 9.66699 6.33333C11.1398 6.33333 12.3337 7.52724 12.3337 9ZM8.06699 25H21.9337C24.1739 25 25.294 25 26.1496 24.564C26.9023 24.1805 27.5142 23.5686 27.8977 22.816C28.3337 21.9603 28.3337 20.8402 28.3337 18.6V7.4C28.3337 5.15979 28.3337 4.03969 27.8977 3.18404C27.5142 2.43139 26.9023 1.81947 26.1496 1.43597C25.294 1 24.1739 1 21.9337 1H8.06699C5.82678 1 4.70668 1 3.85103 1.43597C3.09838 1.81947 2.48646 2.43139 2.10297 3.18404C1.66699 4.03969 1.66699 5.15979 1.66699 7.4V18.6C1.66699 20.8402 1.66699 21.9603 2.10297 22.816C2.48646 23.5686 3.09838 24.1805 3.85103 24.564C4.70668 25 5.82678 25 8.06699 25Z" stroke="#ADADAD" stroke-width="1.5" stroke-linecap="round" stroke-linejoin="round"/>
</svg>
