<svg width="16" height="16" viewBox="0 0 16 16" fill="none" xmlns="http://www.w3.org/2000/svg">
<mask id="mask0_149_4676" style="mask-type:alpha" maskUnits="userSpaceOnUse" x="0" y="0" width="16" height="16">
<rect x="0.160461" y="0.724609" width="15.1608" height="15.1608" fill="#D9D9D9"/>
</mask>
<g mask="url(#mask0_149_4676)">
<path d="M0.959703 11.9615C0.822729 11.9615 0.707864 11.9152 0.61511 11.8226C0.52246 11.7298 0.476135 11.6149 0.476135 11.478V11.2545C0.476135 10.75 0.700863 10.3521 1.15032 10.0609C1.59988 9.76979 2.20895 9.62423 2.97752 9.62423C3.11512 9.62423 3.25883 9.63313 3.40865 9.65092C3.55847 9.66871 3.7144 9.6934 3.87643 9.72499C3.72177 9.91134 3.60148 10.1209 3.51557 10.3537C3.42976 10.5866 3.38686 10.8173 3.38686 11.0459V11.9615H0.959703ZM4.7766 11.9615C4.63005 11.9615 4.50839 11.9128 4.41164 11.8154C4.31478 11.7182 4.26635 11.5976 4.26635 11.4536V11.1561C4.26635 10.904 4.33357 10.6735 4.46802 10.4647C4.60246 10.2558 4.78387 10.1024 5.01223 10.0045C5.45115 9.80121 5.89682 9.64613 6.34922 9.53927C6.80152 9.4323 7.26209 9.37882 7.73091 9.37882C8.2088 9.37882 8.67389 9.4323 9.12618 9.53927C9.57848 9.64613 10.0241 9.80121 10.463 10.0045C10.6915 10.1024 10.8739 10.2558 11.0104 10.4647C11.1468 10.6735 11.2151 10.904 11.2151 11.1561V11.4536C11.2151 11.5976 11.1664 11.7182 11.069 11.8154C10.9717 11.9128 10.8511 11.9615 10.7072 11.9615H4.7766ZM12.0946 11.9615V11.0356C12.0946 10.7887 12.0506 10.5551 11.9628 10.3349C11.8749 10.1146 11.7536 9.91134 11.599 9.72499C11.7861 9.6934 11.9519 9.66871 12.0964 9.65092C12.241 9.63313 12.3789 9.62423 12.5101 9.62423C13.2786 9.62423 13.8866 9.77084 14.3341 10.0641C14.7815 10.3572 15.0053 10.754 15.0053 11.2545V11.478C15.0053 11.6149 14.9589 11.7298 14.8663 11.8226C14.7735 11.9152 14.6587 11.9615 14.5217 11.9615H12.0946ZM5.08882 11.1403H10.3866V11.0735C10.3534 10.85 10.0635 10.6485 9.51673 10.4691C8.9701 10.2897 8.37809 10.2 7.7407 10.2C7.10332 10.2 6.51131 10.2897 5.96468 10.4691C5.41794 10.6485 5.12599 10.85 5.08882 11.0735V11.1403ZM2.97246 8.88435C2.70852 8.88435 2.48421 8.79154 2.29954 8.60593C2.11487 8.42021 2.02254 8.19695 2.02254 7.93617C2.02254 7.67264 2.1154 7.44755 2.30112 7.26088C2.48684 7.07421 2.71004 6.98088 2.97073 6.98088C3.23436 6.98088 3.4605 7.07295 3.64917 7.25709C3.83795 7.44123 3.93233 7.66711 3.93233 7.93475C3.93233 8.19448 3.84032 8.41768 3.65628 8.60435C3.47235 8.79102 3.24441 8.88435 2.97246 8.88435ZM12.5067 8.88435C12.2457 8.88435 12.0219 8.79091 11.8352 8.60403C11.6486 8.41705 11.5552 8.19506 11.5552 7.93806C11.5552 7.67327 11.6487 7.44755 11.8357 7.26088C12.0226 7.07421 12.2455 6.98088 12.5045 6.98088C12.7714 6.98088 12.9982 7.07295 13.1849 7.25709C13.3715 7.44123 13.4649 7.66648 13.4649 7.93285C13.4649 8.19638 13.3731 8.42084 13.1894 8.60624C13.0057 8.79165 12.7782 8.88435 12.5067 8.88435ZM7.73502 8.62077C7.28525 8.62077 6.90044 8.46132 6.58058 8.14242C6.26073 7.82362 6.10081 7.43644 6.10081 6.98088C6.10081 6.52668 6.26021 6.13982 6.57901 5.82028C6.89791 5.50064 7.28514 5.34082 7.7407 5.34082C8.19479 5.34082 8.58166 5.50043 8.9013 5.81965C9.22083 6.13876 9.3806 6.52774 9.3806 6.98656C9.3806 7.43623 9.22105 7.82104 8.90193 8.141C8.58271 8.46085 8.19374 8.62077 7.73502 8.62077ZM7.7437 7.79956C7.9727 7.79956 8.16589 7.71986 8.32329 7.56046C8.4808 7.40096 8.55955 7.20671 8.55955 6.97772C8.55955 6.74883 8.48106 6.55564 8.32408 6.39813C8.1671 6.24073 7.97264 6.16203 7.7407 6.16203C7.51382 6.16203 7.32062 6.24052 7.16112 6.3975C7.00161 6.55437 6.92186 6.74883 6.92186 6.98088C6.92186 7.20776 7.00161 7.40096 7.16112 7.56046C7.32062 7.71986 7.51482 7.79956 7.7437 7.79956Z" fill="#1C1B1F"/>
</g>
</svg>
