<svg width="28" height="28" viewBox="0 0 28 28" fill="none" xmlns="http://www.w3.org/2000/svg">
<mask id="mask0_30_1922" style="mask-type:alpha" maskUnits="userSpaceOnUse" x="0" y="0" width="28" height="28">
<rect width="28" height="28" fill="#D9D9D9"/>
</mask>
<g mask="url(#mask0_30_1922)">
<path d="M13.3105 25.3333C12.7392 25.3333 12.25 25.1049 11.8432 24.6479C11.4363 24.191 11.2329 23.6417 11.2329 23H15.3881C15.3881 23.6417 15.1847 24.191 14.7778 24.6479C14.371 25.1049 13.8819 25.3333 13.3105 25.3333ZM6.03881 21.8333C5.74448 21.8333 5.49776 21.7215 5.29866 21.4979C5.09955 21.2743 5 20.9972 5 20.6667C5 20.3361 5.09955 20.059 5.29866 19.8354C5.49776 19.6118 5.74448 19.5 6.03881 19.5H7.07763V11.3333C7.07763 9.71944 7.51046 8.28542 8.37614 7.03125C9.24182 5.77708 10.3672 4.95556 11.7523 4.56667V3.75C11.7523 3.26389 11.9038 2.85069 12.2068 2.51042C12.5098 2.17014 12.8777 2 13.3105 2C13.7433 2 14.1113 2.17014 14.4142 2.51042C14.7172 2.85069 14.8687 3.26389 14.8687 3.75V4.12917C14.6783 4.55694 14.5398 4.99444 14.4532 5.44167C14.3666 5.88889 14.332 6.34583 14.3493 6.8125C14.1762 6.77361 14.0074 6.73958 13.8429 6.71042C13.6784 6.68125 13.501 6.66667 13.3105 6.66667C12.1678 6.66667 11.1896 7.12361 10.3759 8.0375C9.56212 8.95139 9.15525 10.05 9.15525 11.3333V19.5H17.4658V12.0042C17.7774 12.1597 18.1107 12.2812 18.4656 12.3687C18.8205 12.4563 19.1798 12.5 19.5434 12.5V19.5H20.5822C20.8765 19.5 21.1232 19.6118 21.3223 19.8354C21.5215 20.059 21.621 20.3361 21.621 20.6667C21.621 20.9972 21.5215 21.2743 21.3223 21.4979C21.1232 21.7215 20.8765 21.8333 20.5822 21.8333H6.03881ZM19.5434 10.1667C18.6777 10.1667 17.9419 9.82639 17.3359 9.14583C16.7299 8.46528 16.4269 7.63889 16.4269 6.66667C16.4269 5.69444 16.7299 4.86806 17.3359 4.1875C17.9419 3.50694 18.6777 3.16667 19.5434 3.16667C20.4091 3.16667 21.1449 3.50694 21.7509 4.1875C22.3568 4.86806 22.6598 5.69444 22.6598 6.66667C22.6598 7.63889 22.3568 8.46528 21.7509 9.14583C21.1449 9.82639 20.4091 10.1667 19.5434 10.1667Z" fill="#1C1B1F"/>
</g>
</svg>
