<svg width="21" height="21" viewBox="0 0 21 21" fill="none" xmlns="http://www.w3.org/2000/svg">
<mask id="mask0_438_4631" style="mask-type:alpha" maskUnits="userSpaceOnUse" x="0" y="0" width="21" height="21">
<rect x="0.674805" y="0.160896" width="20" height="20" fill="#D9D9D9"/>
</mask>
<g mask="url(#mask0_438_4631)">
<path d="M9.9248 10.9109H6.4248C6.2123 10.9109 6.03418 10.8394 5.89043 10.6965C5.74668 10.5536 5.6748 10.3765 5.6748 10.1653C5.6748 9.95402 5.74668 9.77548 5.89043 9.62965C6.03418 9.48381 6.2123 9.4109 6.4248 9.4109H9.9248V5.9109C9.9248 5.6984 9.99626 5.52027 10.1392 5.37652C10.2821 5.23277 10.4592 5.1609 10.6704 5.1609C10.8817 5.1609 11.0602 5.23277 11.2061 5.37652C11.3519 5.52027 11.4248 5.6984 11.4248 5.9109V9.4109H14.9248C15.1373 9.4109 15.3154 9.48236 15.4592 9.62527C15.6029 9.76819 15.6748 9.94527 15.6748 10.1565C15.6748 10.3678 15.6029 10.5463 15.4592 10.6921C15.3154 10.838 15.1373 10.9109 14.9248 10.9109H11.4248V14.4109C11.4248 14.6234 11.3533 14.8015 11.2104 14.9453C11.0675 15.089 10.8904 15.1609 10.6792 15.1609C10.4679 15.1609 10.2894 15.089 10.1436 14.9453C9.99772 14.8015 9.9248 14.6234 9.9248 14.4109V10.9109Z" fill="#474747"/>
</g>
</svg>
