<svg width="28" height="28" viewBox="0 0 28 28" fill="none" xmlns="http://www.w3.org/2000/svg">
<mask id="mask0_30_1925" style="mask-type:alpha" maskUnits="userSpaceOnUse" x="0" y="0" width="28" height="28">
<rect width="28" height="28" fill="#D9D9D9"/>
</mask>
<g mask="url(#mask0_30_1925)">
<path d="M11.7523 19.1667C9.86511 19.1667 8.26793 18.4326 6.96076 16.9646C5.65359 15.4965 5 13.7028 5 11.5833C5 9.46389 5.65359 7.67014 6.96076 6.20208C8.26793 4.73403 9.86511 4 11.7523 4C13.6395 4 15.2366 4.73403 16.5438 6.20208C17.851 7.67014 18.5046 9.46389 18.5046 11.5833C18.5046 12.4389 18.3834 13.2458 18.141 14.0042C17.8986 14.7625 17.5696 15.4333 17.1541 16.0167L22.9715 22.55C23.1619 22.7639 23.2571 23.0361 23.2571 23.3667C23.2571 23.6972 23.1619 23.9694 22.9715 24.1833C22.781 24.3972 22.5386 24.5042 22.2443 24.5042C21.95 24.5042 21.7076 24.3972 21.5171 24.1833L15.6998 17.65C15.1804 18.1167 14.583 18.4861 13.9078 18.7583C13.2326 19.0306 12.5141 19.1667 11.7523 19.1667ZM11.7523 16.8333C13.0508 16.8333 14.1545 16.3229 15.0635 15.3021C15.9725 14.2812 16.4269 13.0417 16.4269 11.5833C16.4269 10.125 15.9725 8.88542 15.0635 7.86458C14.1545 6.84375 13.0508 6.33333 11.7523 6.33333C10.4538 6.33333 9.35003 6.84375 8.44107 7.86458C7.53211 8.88542 7.07763 10.125 7.07763 11.5833C7.07763 13.0417 7.53211 14.2812 8.44107 15.3021C9.35003 16.3229 10.4538 16.8333 11.7523 16.8333Z" fill="#1C1B1F"/>
</g>
</svg>
