<svg width="30" height="26" viewBox="0 0 30 26" fill="none" xmlns="http://www.w3.org/2000/svg">
<path d="M9.6665 11.6667C11.1393 11.6667 12.3332 10.4728 12.3332 9C12.3332 7.52724 11.1393 6.33333 9.6665 6.33333C8.19374 6.33333 6.99984 7.52724 6.99984 9C6.99984 10.4728 8.19374 11.6667 9.6665 11.6667Z" fill="#FBFBFB"/>
<path d="M1.6665 7.4C1.6665 5.15979 1.6665 4.03969 2.10248 3.18404C2.48597 2.43139 3.09789 1.81947 3.85054 1.43597C4.70619 1 5.82629 1 8.0665 1H21.9332C24.1734 1 25.2935 1 26.1491 1.43597C26.9018 1.81947 27.5137 2.43139 27.8972 3.18404C28.3332 4.03969 28.3332 5.15979 28.3332 7.4V18.6C28.3332 20.8402 28.3332 21.9603 27.8972 22.816C27.5137 23.5686 26.9018 24.1805 26.1491 24.564C25.2935 25 24.1734 25 21.9332 25H8.0665C5.82629 25 4.70619 25 3.85054 24.564C3.09789 24.1805 2.48597 23.5686 2.10248 22.816C1.6665 21.9603 1.6665 20.8402 1.6665 18.6V7.4Z" fill="#FBFBFB"/>
<path d="M4.69596 24.6372L13.4913 15.8418C14.0194 15.3138 14.2834 15.0498 14.5878 14.9509C14.8556 14.8639 15.1441 14.8639 15.4119 14.9509C15.7163 15.0498 15.9803 15.3138 16.5083 15.8418L25.2451 24.5786M17.6665 17L21.4913 13.1752C22.0194 12.6471 22.2834 12.3831 22.5878 12.2842C22.8556 12.1972 23.1441 12.1972 23.4119 12.2842C23.7163 12.3831 23.9803 12.6471 24.5083 13.1752L28.3332 17M12.3332 9C12.3332 10.4728 11.1393 11.6667 9.6665 11.6667C8.19374 11.6667 6.99984 10.4728 6.99984 9C6.99984 7.52724 8.19374 6.33333 9.6665 6.33333C11.1393 6.33333 12.3332 7.52724 12.3332 9ZM8.0665 25H21.9332C24.1734 25 25.2935 25 26.1491 24.564C26.9018 24.1805 27.5137 23.5686 27.8972 22.816C28.3332 21.9603 28.3332 20.8402 28.3332 18.6V7.4C28.3332 5.15979 28.3332 4.03969 27.8972 3.18404C27.5137 2.43139 26.9018 1.81947 26.1491 1.43597C25.2935 1 24.1734 1 21.9332 1H8.0665C5.82629 1 4.70619 1 3.85054 1.43597C3.09789 1.81947 2.48597 2.43139 2.10248 3.18404C1.6665 4.03969 1.6665 5.15979 1.6665 7.4V18.6C1.6665 20.8402 1.6665 21.9603 2.10248 22.816C2.48597 23.5686 3.09789 24.1805 3.85054 24.564C4.70619 25 5.82629 25 8.0665 25Z" stroke="#616161" stroke-width="1.5" stroke-linecap="round" stroke-linejoin="round"/>
</svg>
