<svg width="24" height="25" viewBox="0 0 24 25" fill="none" xmlns="http://www.w3.org/2000/svg">
<mask id="mask0_59_1360" style="mask-type:alpha" maskUnits="userSpaceOnUse" x="0" y="0" width="24" height="25">
<rect y="0.5" width="24" height="24" fill="#D9D9D9"/>
</mask>
<g mask="url(#mask0_59_1360)">
<path d="M10.8922 22C10.5512 22 10.2567 21.8868 10.0087 21.6605C9.76058 21.4343 9.60958 21.1558 9.55574 20.825L9.31149 18.9538C9.04366 18.8641 8.76899 18.7385 8.48749 18.577C8.20616 18.4153 7.95458 18.2422 7.73274 18.0577L5.99999 18.7943C5.68583 18.9328 5.37016 18.9462 5.05299 18.8345C4.73566 18.723 4.48916 18.5205 4.31349 18.227L3.18649 16.273C3.01083 15.9795 2.96024 15.6689 3.03474 15.3413C3.10908 15.0138 3.27958 14.7436 3.54624 14.5308L5.04424 13.4058C5.02124 13.2571 5.00491 13.1077 4.99524 12.9578C4.98558 12.8078 4.98074 12.6583 4.98074 12.5095C4.98074 12.3673 4.98558 12.2228 4.99524 12.076C5.00491 11.9292 5.02124 11.7686 5.04424 11.5943L3.54624 10.4693C3.27958 10.2564 3.11066 9.98458 3.03949 9.65375C2.96833 9.32308 3.02058 9.01092 3.19624 8.71725L4.31349 6.79225C4.48916 6.50508 4.73566 6.30417 5.05299 6.1895C5.37016 6.07467 5.68583 6.0865 5.99999 6.225L7.72299 6.952C7.96416 6.761 8.22158 6.58633 8.49524 6.428C8.76891 6.26967 9.03783 6.14242 9.30199 6.04625L9.55574 4.175C9.60958 3.84417 9.76058 3.56567 10.0087 3.3395C10.2567 3.11317 10.5512 3 10.8922 3H13.1077C13.4487 3 13.7432 3.11317 13.9912 3.3395C14.2394 3.56567 14.3904 3.84417 14.4442 4.175L14.6885 6.05575C14.9885 6.16475 15.2599 6.292 15.5027 6.4375C15.7457 6.583 15.991 6.7545 16.2385 6.952L18.0097 6.225C18.3237 6.0865 18.6394 6.07467 18.9567 6.1895C19.2741 6.30417 19.5205 6.50508 19.696 6.79225L20.8135 8.727C20.9892 9.0205 21.0397 9.33108 20.9652 9.65875C20.8909 9.98625 20.7204 10.2564 20.4537 10.4693L18.9172 11.623C18.9531 11.7845 18.9727 11.9355 18.976 12.076C18.9792 12.2163 18.9807 12.3577 18.9807 12.5C18.9807 12.6358 18.9775 12.774 18.971 12.9145C18.9647 13.0548 18.9417 13.2154 18.902 13.3963L20.4095 14.5308C20.6762 14.7436 20.8483 15.0138 20.926 15.3413C21.0035 15.6689 20.9544 15.9795 20.7787 16.273L19.646 18.2172C19.4705 18.5109 19.2225 18.7135 18.902 18.825C18.5815 18.9365 18.2642 18.923 17.95 18.7845L16.2385 18.048C15.991 18.2455 15.7384 18.4202 15.4807 18.572C15.2231 18.724 14.959 18.8481 14.6885 18.9443L14.4442 20.825C14.3904 21.1558 14.2394 21.4343 13.9912 21.6605C13.7432 21.8868 13.4487 22 13.1077 22H10.8922ZM11 20.5H12.9655L13.325 17.8212C13.8353 17.6879 14.3017 17.4985 14.724 17.253C15.1465 17.0073 15.5539 16.6916 15.9462 16.3057L18.4307 17.35L19.4155 15.65L17.2462 14.0155C17.3296 13.7565 17.3862 13.5026 17.4162 13.2537C17.4464 13.0051 17.4615 12.7538 17.4615 12.5C17.4615 12.2397 17.4464 11.9884 17.4162 11.7463C17.3862 11.5039 17.3296 11.2564 17.2462 11.0038L19.4345 9.35L18.45 7.65L15.9365 8.7095C15.6018 8.35183 15.2009 8.03583 14.7337 7.7615C14.2664 7.48717 13.7937 7.29292 13.3155 7.17875L13 4.5H11.0155L10.6845 7.16925C10.1743 7.28975 9.70324 7.47433 9.27124 7.723C8.83908 7.97183 8.42683 8.29233 8.03449 8.6845L5.54999 7.65L4.56549 9.35L6.72499 10.9595C6.64166 11.1968 6.58333 11.4437 6.54999 11.7C6.51666 11.9563 6.49999 12.2262 6.49999 12.5095C6.49999 12.7698 6.51666 13.025 6.54999 13.275C6.58333 13.525 6.63849 13.7718 6.71549 14.0155L4.56549 15.65L5.54999 17.35L8.02499 16.3C8.40449 16.6897 8.81024 17.0089 9.24224 17.2578C9.67441 17.5064 10.152 17.6974 10.675 17.8307L11 20.5ZM12.0115 15.5C12.8435 15.5 13.5515 15.208 14.1355 14.624C14.7195 14.04 15.0115 13.332 15.0115 12.5C15.0115 11.668 14.7195 10.96 14.1355 10.376C13.5515 9.792 12.8435 9.5 12.0115 9.5C11.1692 9.5 10.4586 9.792 9.87974 10.376C9.30091 10.96 9.01149 11.668 9.01149 12.5C9.01149 13.332 9.30091 14.04 9.87974 14.624C10.4586 15.208 11.1692 15.5 12.0115 15.5Z" fill="#1C1B1F"/>
</g>
</svg>
