<svg width="7" height="7" viewBox="0 0 7 7" fill="none" xmlns="http://www.w3.org/2000/svg">
<path d="M2.33331 4.08325C2.33331 4.08325 2.77081 4.66659 3.49998 4.66659C4.22915 4.66659 4.66665 4.08325 4.66665 4.08325M4.95831 2.69492C4.8431 2.83638 4.6856 2.91658 4.52081 2.91658C4.35602 2.91658 4.2029 2.83638 4.08331 2.69492M2.91665 2.69492C2.80144 2.83638 2.64394 2.91658 2.47915 2.91658C2.31435 2.91658 2.16123 2.83638 2.04165 2.69492M6.41665 3.49992C6.41665 5.11075 5.11081 6.41659 3.49998 6.41659C1.88915 6.41659 0.583313 5.11075 0.583313 3.49992C0.583313 1.88909 1.88915 0.583252 3.49998 0.583252C5.11081 0.583252 6.41665 1.88909 6.41665 3.49992Z" stroke="#ADADAD" stroke-width="0.5" stroke-linecap="round" stroke-linejoin="round"/>
</svg>
