<svg width="7" height="7" viewBox="0 0 7 7" fill="none" xmlns="http://www.w3.org/2000/svg">
<path d="M2.33331 4.08325C2.33331 4.08325 2.77081 4.66659 3.49998 4.66659C4.22915 4.66659 4.66665 4.08325 4.66665 4.08325M4.37498 2.62492H4.3779M2.33331 2.62492H2.91665M6.41665 3.49992C6.41665 5.11075 5.11081 6.41659 3.49998 6.41659C1.88915 6.41659 0.583313 5.11075 0.583313 3.49992C0.583313 1.88909 1.88915 0.583252 3.49998 0.583252C5.11081 0.583252 6.41665 1.88909 6.41665 3.49992ZM4.52081 2.62492C4.52081 2.70546 4.45552 2.77075 4.37498 2.77075C4.29444 2.77075 4.22915 2.70546 4.22915 2.62492C4.22915 2.54438 4.29444 2.47909 4.37498 2.47909C4.45552 2.47909 4.52081 2.54438 4.52081 2.62492Z" stroke="#ADADAD" stroke-width="0.5" stroke-linecap="round" stroke-linejoin="round"/>
</svg>
