<svg width="7" height="7" viewBox="0 0 7 7" fill="none" xmlns="http://www.w3.org/2000/svg">
<path d="M2.33334 4.37492H4.66668M4.37501 2.62492H4.37793M2.62501 2.62492H2.62793M6.41668 3.49992C6.41668 5.11075 5.11084 6.41659 3.50001 6.41659C1.88918 6.41659 0.583344 5.11075 0.583344 3.49992C0.583344 1.88909 1.88918 0.583252 3.50001 0.583252C5.11084 0.583252 6.41668 1.88909 6.41668 3.49992ZM4.52084 2.62492C4.52084 2.70546 4.45555 2.77075 4.37501 2.77075C4.29447 2.77075 4.22918 2.70546 4.22918 2.62492C4.22918 2.54438 4.29447 2.47909 4.37501 2.47909C4.45555 2.47909 4.52084 2.54438 4.52084 2.62492ZM2.77084 2.62492C2.77084 2.70546 2.70555 2.77075 2.62501 2.77075C2.54447 2.77075 2.47918 2.70546 2.47918 2.62492C2.47918 2.54438 2.54447 2.47909 2.62501 2.47909C2.70555 2.47909 2.77084 2.54438 2.77084 2.62492Z" stroke="#ADADAD" stroke-width="0.5" stroke-linecap="round" stroke-linejoin="round"/>
</svg>
