<svg width="7" height="7" viewBox="0 0 7 7" fill="none" xmlns="http://www.w3.org/2000/svg">
<path d="M4.37498 2.62492H4.3779M2.62498 2.62492H2.6279M6.41665 3.49992C6.41665 5.11075 5.11081 6.41659 3.49998 6.41659C1.88915 6.41659 0.583313 5.11075 0.583313 3.49992C0.583313 1.88909 1.88915 0.583252 3.49998 0.583252C5.11081 0.583252 6.41665 1.88909 6.41665 3.49992ZM4.52081 2.62492C4.52081 2.70546 4.45552 2.77075 4.37498 2.77075C4.29444 2.77075 4.22915 2.70546 4.22915 2.62492C4.22915 2.54438 4.29444 2.47909 4.37498 2.47909C4.45552 2.47909 4.52081 2.54438 4.52081 2.62492ZM2.77081 2.62492C2.77081 2.70546 2.70552 2.77075 2.62498 2.77075C2.54444 2.77075 2.47915 2.70546 2.47915 2.62492C2.47915 2.54438 2.54444 2.47909 2.62498 2.47909C2.70552 2.47909 2.77081 2.54438 2.77081 2.62492ZM3.49998 5.10409C4.22929 5.10409 4.81248 4.56946 4.81248 4.08325H2.18748C2.18748 4.56946 2.77067 5.10409 3.49998 5.10409Z" stroke="#ADADAD" stroke-width="0.5" stroke-linecap="round" stroke-linejoin="round"/>
</svg>